<?xml version="1.0" encoding="utf-8"?>
<!-- Generator: Adobe Illustrator 28.1.0, SVG Export Plug-In . SVG Version: 6.00 Build 0)  -->
<svg version="1.1" id="Layer_1" xmlns="http://www.w3.org/2000/svg" xmlns:xlink="http://www.w3.org/1999/xlink" x="0px" y="0px"
	 viewBox="0 0 148.4 111.7" style="enable-background:new 0 0 148.4 111.7;" xml:space="preserve">
<style type="text/css">
	.st0{fill:#08A23B;}
	.st1{fill:#FDFEFD;}
	.st2{fill:#03621E;}
	.st3{fill:#FCD500;}
	.st4{fill:#FDFEFE;}
</style>
<g id="argDuh.tif">
	<g>
		<g>
			<path class="st0" d="M100.4,0.9c0.3,0,0.6,0,1,0c0,0.1,0.2,0.1,0.3,0.1c2,0.2,3.8,0.8,5.5,1.9c2.8,1.7,4.9,4.2,6.7,6.9
				c2.7,4.3,4.5,9,5.8,13.8c2.5,9,3.5,18.3,3.8,27.6c0.1,4.1,0,8.1-0.3,12.2c-0.2,3.3-0.6,6.6-1.1,9.8c-1.9-0.2-3.6,0.3-5,1.8
				c0-0.1,0-0.2,0-0.4c0.5-2.4,0.9-4.8,1.2-7.2c0.4-3.2,0.7-6.5,0.8-9.7c0.1-4.4,0.1-8.9-0.3-13.3c-0.2-2.8-0.5-5.6-0.9-8.3
				c-0.5-3.7-1.3-7.3-2.3-10.9s-2.2-7.2-4.1-10.4c-1-1.8-2.2-3.4-4-4.5c-0.8-0.5-1.8-0.8-2.8-0.8c-1.8,0.1-3.2,1-4.5,2.2
				c-1.7,1.6-3,3.5-4,5.6c-1.8,3.6-3.1,7.3-4.1,11.2c-1.3,4.7-2.1,9.5-2.7,14.3c-0.5,3.6-0.8,7.3-0.9,10.9c-0.1,2.6-0.2,5.2-0.1,7.8
				c0.1,2.5,0.2,5.1,0.4,7.6c0.2,2.8,0.5,5.6,1.1,8.3c0.2,1,0.4,2,0.9,2.9c-0.1,0.2,0,0.4,0.1,0.6c1.2,3.9,2.5,7.8,4,11.6
				c1,2.3,2,4.7,3.3,6.8c1.3,2.1,2.3,4.4,4.5,5.8c0.3,0.2,0.5,0.5,0.7,0.7c-0.7,0.1-1.5,0.1-2.2,0c-3.2-0.4-6.3-0.9-9.5-1.3
				c-4.4-0.6-8.7-1.2-13.1-1.8c-4.4-0.6-8.7-1.2-13.1-1.8c-4.7-0.6-9.3-1.3-14-1.9s-9.4-1.2-14.1-1.9c-4.4-0.6-8.9-1.2-13.3-1.8
				c-1.9-0.2-3.8-0.5-5.6-1.4c-4.3-2-7.5-5.2-10.1-9.1c-3.9-5.9-5.9-12.5-7.1-19.3c-0.6-3.3-0.9-6.6-1-9.9c0-1.6,0-3.2,0-4.9
				c0.1-3.3,0.4-6.6,1-9.9c1-5.5,2.5-10.9,5.2-15.8c1.9-3.5,4.2-6.6,7.4-9c2.1-1.6,4.3-2.9,6.9-3.4c2.2-0.5,4.4-0.7,6.7-1
				c5.6-0.8,11.2-1.7,16.8-2.5C49.5,8.6,54.8,7.8,60.1,7c6.4-1,12.8-1.9,19.2-2.8c6.2-0.9,12.4-1.8,18.5-2.8
				C98.7,1.3,99.6,1.3,100.4,0.9z M42.5,49.6L42.5,49.6c6.2-0.1,12.5-0.3,18.7-0.4c5.6-0.1,11.3-0.3,16.9-0.4c0.4,0,0.5-0.1,0.5-0.5
				c0-2.5,0.2-5,0.4-7.5c0.3-4.1,0.7-8.2,1.6-12.2c0.1-0.5,0-0.6-0.5-0.5c-4.5,0.4-9,0.8-13.5,1.2c-4.1,0.3-8.2,0.7-12.2,1
				c-4.5,0.4-9,0.8-13.6,1.2c-4.5,0.4-9,0.8-13.6,1.1c-5,0.4-10,0.9-15,1.3c-0.7,0.1-1.6-0.1-2.2,0.3c-0.5,0.4-0.7,1.3-1,2
				c-1.8,4.4-2.4,9-2.6,13.6c0,0.5,0.1,0.6,0.6,0.6c5.2-0.1,10.4-0.2,15.6-0.4C29.3,49.9,35.9,49.7,42.5,49.6z M80.7,79.2
				c-0.4-1.7-0.7-3.4-0.9-5.1c-0.7-4.9-1.1-9.9-1.3-14.9c0-0.6-0.2-0.7-0.8-0.7c-13.7-0.2-27.3-0.4-41-0.6
				c-9.9-0.1-19.8-0.3-29.7-0.4c-0.6,0-0.7,0.2-0.6,0.7c0.1,1.6,0.2,3.2,0.5,4.8c0.5,3.5,1.4,7,2.9,10.2c0.2,0.5,0.5,0.6,1,0.7
				c2.3,0.2,4.6,0.3,6.9,0.5c4,0.3,8,0.6,12.1,0.9c4,0.3,8.1,0.6,12.1,0.9s8,0.6,12,0.9c4.6,0.3,9.2,0.7,13.9,1.1
				c2.9,0.2,5.9,0.5,8.8,0.7C77.9,79,79.2,79.1,80.7,79.2z M12.2,80.7c2.1,3.7,4.6,6.9,7.7,9.6c0.4,0.3,0.8,0.5,1.4,0.6
				c1.7,0.2,3.4,0.4,5.1,0.7c4.4,0.6,8.9,1.2,13.3,1.8c4.7,0.6,9.4,1.2,14.1,1.9c5.3,0.7,10.6,1.4,15.9,2.1
				c5.4,0.7,10.9,1.4,16.3,2.2c0.9,0.1,1.8,0.2,2.7,0.3c-0.4-0.7-0.8-1.2-1.1-1.8c-1.8-3.2-3.5-6.5-4.9-9.9
				c-0.1-0.3-0.2-0.5-0.6-0.5c-3.3-0.3-6.6-0.6-9.9-1c-3.5-0.3-7.1-0.7-10.6-1s-7.1-0.7-10.6-1s-7.1-0.7-10.6-1
				c-3.9-0.4-7.7-0.8-11.6-1.1c-3.6-0.3-7.1-0.7-10.7-1C16.2,81.1,14.3,80.9,12.2,80.7z M12.3,27c0.2,0.1,0.3,0.1,0.4,0.1
				c2.9-0.3,5.8-0.6,8.6-0.9c4.7-0.5,9.5-1,14.2-1.5s9.5-1,14.2-1.5c5.1-0.5,10.1-1.1,15.2-1.6c5.7-0.6,11.3-1.2,17-1.8
				c0.4,0,0.6-0.2,0.8-0.6c0.7-1.7,1.4-3.4,2.2-5c1.1-2.3,2.2-4.5,3.7-6.7c-4.2,0.6-8.2,1.2-12.3,1.7C71.9,9.7,67.4,10.4,63,11
				s-8.9,1.3-13.3,1.9c-5,0.7-10,1.4-15,2.1c-4.7,0.7-9.3,1.3-14,2c-0.3,0-0.5,0.2-0.7,0.3c-2.1,1.7-3.8,3.7-5.4,5.9
				C13.8,24.4,13,25.7,12.3,27z"/>
			<path class="st1" d="M0.2,51C0.2,51,0.3,51,0.2,51c0.1,1.6,0.1,3.2,0.1,4.9l0,0l0,0C0.2,54.2,0.2,52.6,0.2,51z"/>
			<path class="st2" d="M90.7,80.3c-0.5-0.9-0.7-1.9-0.9-2.9c-0.6-2.7-0.9-5.5-1.1-8.3c-0.2-2.5-0.3-5.1-0.4-7.6
				c-0.1-2.6,0-5.2,0.1-7.8c0.1-3.7,0.4-7.3,0.9-10.9c0.6-4.8,1.5-9.6,2.7-14.3c1-3.9,2.3-7.6,4.1-11.2c1.1-2.1,2.3-4,4-5.6
				c1.3-1.2,2.8-2,4.5-2.2c1-0.1,1.9,0.2,2.8,0.8c1.8,1.1,3,2.8,4,4.5c1.9,3.3,3.1,6.8,4.1,10.4s1.7,7.2,2.3,10.9
				c0.4,2.8,0.7,5.5,0.9,8.3c0.4,4.4,0.4,8.9,0.3,13.3c-0.1,3.2-0.3,6.5-0.8,9.7c-0.3,2.4-0.7,4.8-1.2,7.2c0,0.1,0,0.2,0,0.4
				c-0.2,0.4-0.4,0-0.5-0.1c-1.5-1.4-3.3-2-5.4-1.6c-3.4,0.7-5.5,3.9-4.7,7.3c0.1,0.5,0,0.6-0.4,0.7c-0.7,0.2-1.5,0.4-2.2,0.6
				c-0.5,0.2-0.6,0.1-0.7-0.4c-0.5-2-1.6-3.4-3.4-4.3C96.6,75.5,92.5,76.7,90.7,80.3z"/>
			<path class="st3" d="M90.7,80.3c1.7-3.6,5.8-4.8,9-3.2c1.8,0.9,3,2.4,3.4,4.3c0.1,0.5,0.3,0.6,0.7,0.4c0.7-0.3,1.4-0.4,2.2-0.6
				c0.4-0.1,0.5-0.2,0.4-0.7c-0.8-3.4,1.3-6.6,4.7-7.3c2-0.4,3.8,0.2,5.4,1.6c0.1,0.1,0.2,0.5,0.5,0.1c1.4-1.4,3-2,5-1.8
				c0.9,0.3,1.8,0.6,2.5,1.2c1.2,1.1,1.9,2.4,1.9,4c0,0.4,0.1,0.6,0.5,0.6c1.6,0.2,3,1.3,3.3,2.9c0.1,0.6,0.3,0.6,0.8,0.4
				c2.1-0.6,4.4,0.1,5.7,1.8c1.4,1.9,1.6,3.9,0.5,6c-0.1,0.2-0.2,0.3-0.3,0.5c4.2,0.1,7,3.9,5.8,8.1c0.7-0.1,1.4-0.1,2,0.1
				c2,0.6,3.3,2.5,3.1,4.6c0,0.4,0,0.7,0,1.1c0.3,1.9-0.2,3.4-1.8,4.5c-1.5,1.1-3.2,1.2-4.9,0.3c-0.3-0.2-0.5-0.2-0.8,0.1
				c-2.1,2.8-6.1,2.9-8.3,0.3c-0.3-0.4-0.4-0.4-0.8-0.1c-1.7,1.2-4,1-5.5-0.5c-0.2-0.2-0.5-0.4-0.8-0.5c-1.1-0.2-2-0.8-2.8-1.6
				c-0.3-0.3-0.4-0.3-0.6,0c-2.3,2.9-6.3,2.9-8.7,0.1c-0.2-0.2-0.3-0.3-0.6-0.3c-1.2,0.2-2.3-0.1-3.2-0.9c-0.2-0.1-0.3-0.1-0.5,0
				c-1.8,1.3-3.6,1.1-5.4-0.1c-0.2-0.3-0.4-0.6-0.7-0.7c-2.2-1.4-3.2-3.7-4.5-5.8c-1.3-2.1-2.3-4.5-3.3-6.8c-1.6-3.8-2.9-7.7-4-11.6
				C90.8,80.7,90.6,80.5,90.7,80.3z"/>
			<path class="st4" d="M42.5,49.6c-6.6,0.1-13.2,0.3-19.8,0.4c-5.2,0.1-10.4,0.2-15.6,0.4c-0.5,0-0.6-0.1-0.6-0.6
				c0.2-4.7,0.8-9.3,2.6-13.6c0.3-0.7,0.5-1.5,1-2s1.4-0.2,2.2-0.3c5-0.4,10-0.9,15-1.3c4.5-0.4,9-0.8,13.6-1.1
				c4.5-0.4,9-0.8,13.6-1.2c4.1-0.3,8.2-0.7,12.2-1c4.5-0.4,9-0.8,13.5-1.2c0.5,0,0.6,0.1,0.5,0.5c-0.9,4-1.3,8.1-1.6,12.2
				c-0.2,2.5-0.4,5-0.4,7.5c0,0.4-0.1,0.5-0.5,0.5c-5.6,0.1-11.3,0.2-16.9,0.4C55,49.3,48.8,49.4,42.5,49.6L42.5,49.6z"/>
			<path class="st4" d="M80.7,79.2c-1.4-0.1-2.8-0.2-4.2-0.3c-2.9-0.2-5.9-0.5-8.8-0.7c-4.6-0.4-9.2-0.7-13.9-1.1
				c-4-0.3-8-0.6-12-0.9s-8.1-0.6-12.1-0.9s-8-0.6-12.1-0.9c-2.3-0.2-4.6-0.4-6.9-0.5c-0.5,0-0.8-0.2-1-0.7C8.1,70,7.3,66.6,6.8,63
				c-0.2-1.6-0.3-3.2-0.5-4.8c0-0.5,0-0.7,0.6-0.7c9.9,0.2,19.8,0.3,29.7,0.4c13.7,0.2,27.3,0.4,41,0.6c0.6,0,0.7,0.1,0.8,0.7
				c0.1,5,0.6,9.9,1.3,14.9C80,75.8,80.3,77.5,80.7,79.2z"/>
			<path class="st1" d="M12.2,80.7c2.1,0.2,4,0.4,6,0.6c3.6,0.3,7.1,0.7,10.7,1c3.9,0.4,7.7,0.8,11.6,1.1c3.5,0.3,7.1,0.7,10.6,1
				s7.1,0.7,10.6,1s7.1,0.7,10.6,1c3.3,0.3,6.6,0.7,9.9,1c0.4,0,0.4,0.3,0.6,0.5c1.4,3.4,3,6.7,4.9,9.9c0.3,0.6,0.7,1.1,1.1,1.8
				c-1-0.1-1.8-0.2-2.7-0.3c-5.4-0.7-10.9-1.4-16.3-2.2c-5.3-0.7-10.6-1.4-15.9-2.1c-4.7-0.6-9.4-1.2-14.1-1.9
				c-4.4-0.6-8.9-1.2-13.3-1.8c-1.7-0.2-3.4-0.5-5.1-0.7c-0.5-0.1-1-0.2-1.4-0.6C16.7,87.6,14.3,84.4,12.2,80.7z"/>
			<path class="st1" d="M12.3,27c0.7-1.3,1.5-2.6,2.4-3.8c1.6-2.2,3.3-4.2,5.4-5.9c0.2-0.2,0.4-0.3,0.7-0.3c4.7-0.7,9.3-1.3,14-2
				c5-0.7,10-1.4,15-2.1c4.4-0.6,8.9-1.3,13.3-1.9c4.4-0.6,8.8-1.3,13.2-1.9c4.1-0.6,8.2-1.2,12.3-1.7c-1.4,2.2-2.6,4.4-3.7,6.7
				c-0.8,1.7-1.6,3.3-2.2,5c-0.2,0.4-0.3,0.5-0.8,0.6c-5.7,0.6-11.3,1.2-17,1.8c-5.1,0.5-10.1,1.1-15.2,1.6c-4.7,0.5-9.5,1-14.2,1.5
				s-9.5,1-14.2,1.5c-2.9,0.3-5.8,0.6-8.6,0.9C12.6,27.1,12.4,27.1,12.3,27z"/>
		</g>
	</g>
</g>
</svg>
