<?xml version="1.0" encoding="utf-8"?>
<!-- Generator: Adobe Illustrator 28.1.0, SVG Export Plug-In . SVG Version: 6.00 Build 0)  -->
<svg version="1.1" id="Layer_1" xmlns="http://www.w3.org/2000/svg" xmlns:xlink="http://www.w3.org/1999/xlink" x="0px" y="0px"
	 viewBox="0 0 107.7 142.3" style="enable-background:new 0 0 107.7 142.3;" xml:space="preserve">
<style type="text/css">
	.st0{fill:#F93207;}
	.st1{fill:#FED500;}
	.st2{fill:#FEFDFD;}
</style>
<g>
	<path class="st0" d="M91,25.1c3.8,1.2,7.5,2.7,10.7,5.2c2.4,1.9,4.3,4.2,4.8,7.4c0.2,1.4-0.2,2.8-0.3,4.1
		c-1.5,11.1-3,22.2-4.5,33.3c-1.6,11.8-3.2,23.7-4.9,35.5c-0.4,3-0.7,6-1.2,9c-0.5,3.1-2,5.7-4,8.1c-3.8,4.7-8.9,7.6-14.5,9.7
		c-8.7,3.3-17.7,4.3-26.9,3.9c-6.5-0.3-12.8-1.4-18.9-3.7c-5.5-2-10.4-4.9-14.2-9.4c-2.7-3.3-4-7.1-4.5-11.3
		c-0.9-7.4-2.1-14.8-3.1-22.2c-1-7.3-2.1-14.6-3.1-22c-1-7.3-2.1-14.7-3.1-22C2.8,47,2.2,43.3,1.7,39.6C1.4,37.8,2,36.2,3,34.7
		c0.7-1,1.5-1.9,2.5-2.7C6,33.5,7,34.8,6.8,36.6c-0.1,0.7,0.2,1.2,0.7,1.7c3.2,3,7,4.8,11.1,6.3c9.8,3.5,20,4.7,30.3,5.1
		c4.1,0.2,8.3,0.1,12.4-0.1c5.8-0.3,11.5-0.9,17.2-2c5.5-1,10.9-2.5,15.9-5.1c2.3-1.2,4.4-2.7,6-4.7c0.4-0.5,0.4-0.7-0.2-0.9
		c-1.1-0.4-2.1-0.8-3.2-1.2c-0.3-0.1-0.6-0.2-0.5-0.7c0.5-3.7-1.6-6.4-5.3-7c-0.4-0.1-0.6-0.2-0.4-0.6C91,26.6,91,25.9,91,25.1z
		 M49.9,99.1L49.9,99.1c-0.2-11.9-0.4-23.8-0.6-35.8c0-0.6-0.1-0.9-0.9-0.9c-6.4-0.2-12.9-0.7-19.2-2c-0.7-0.2-0.7,0.2-0.6,0.7
		c0.5,5.6,0.9,11.3,1.3,16.9c0.7,9.2,1.5,18.3,2.2,27.5c0.7,8.4,1.3,16.8,2,25.2c0.1,0.9,0.4,1.4,1.2,1.8c4.5,2,9.3,2.8,14.3,3.1
		c0.9,0.1,1-0.2,1-1C50.3,122.8,50.1,110.9,49.9,99.1z M58.3,99.3c-0.2,11.9-0.4,23.8-0.7,35.7c0,0.6,0.1,0.9,0.8,0.8
		c1.6-0.1,3.3-0.2,4.9-0.5c3.5-0.5,6.8-1.3,10-2.9c0.4-0.2,0.7-0.4,0.8-0.9c0.1-1.7,0.2-3.5,0.4-5.2c0.4-5.1,0.8-10.3,1.2-15.4
		c0.5-6.8,1.1-13.7,1.6-20.5c0.4-5.3,0.8-10.5,1.3-15.8c0.4-4.4,0.7-8.9,1-13.3c0-0.5,0.2-0.8-0.6-0.7c-6.3,1.3-12.7,1.8-19.1,2
		c-0.7,0-0.9,0.2-1,0.9C58.7,75.5,58.5,87.4,58.3,99.3z M27.3,129.7c-0.3-2.6-0.5-5.1-0.7-7.5c-0.7-6.6-1.3-13.1-2-19.7
		s-1.3-13.1-2-19.7C21.8,75,21,67.2,20.2,59.3c-0.1-0.7-0.3-1-1-1.3c-3.1-1.3-6.1-2.8-9.1-4.5c-0.7-0.4-1.4-0.8-2.2-1.3
		c0,0.4,0,0.8,0.1,1.1c0.5,3.4,1,6.7,1.4,10.1c1.2,9.1,2.5,18.2,3.7,27.3c1.3,9.6,2.6,19.2,3.9,28.7c0.1,0.7,0,1.6,0.5,2.2
		C20.1,125,23.5,127.5,27.3,129.7z M80.9,130c3.8-2.2,7.1-4.7,9.8-8c0.2-0.2,0.3-0.5,0.3-0.8c0.1-0.9,0.2-1.8,0.4-2.7
		c0.9-6.8,1.8-13.5,2.7-20.3c0.9-6.8,1.8-13.6,2.8-20.4c0.9-6.8,1.9-13.6,2.8-20.5c0.2-1.6,0.4-3.2,0.7-4.9c-3.8,2.4-7.7,4.3-11.6,6
		c-0.5,0.2-0.6,0.6-0.7,1c-0.4,4-0.8,8.1-1.2,12.1c-0.5,5.2-1,10.4-1.6,15.7c-0.6,6-1.2,12.1-1.8,18.1c-0.5,5.3-1.1,10.6-1.6,15.9
		C81.5,124.1,81.2,126.9,80.9,130z"/>
	<path class="st1" d="M91,25.1c0,0.8,0,1.5-0.3,2.2c-0.2,0.4,0,0.5,0.4,0.6c3.7,0.6,5.8,3.3,5.3,7c-0.1,0.5,0.2,0.6,0.5,0.7
		c1.1,0.4,2.1,0.8,3.2,1.2c0.6,0.2,0.6,0.5,0.2,0.9c-1.6,2.1-3.7,3.6-6,4.7c-5,2.6-10.4,4.1-15.9,5.1c-5.7,1.1-11.4,1.7-17.2,2
		c-4.1,0.2-8.3,0.3-12.4,0.1c-10.3-0.4-20.5-1.6-30.3-5.1c-4-1.4-7.9-3.3-11.1-6.3c-0.5-0.5-0.9-1-0.7-1.7c0.3-1.6-0.8-3-1.2-4.5
		c-0.3-2.6,0.3-5,2.4-6.8c2-1.7,4.3-2.1,6.8-1.4c0.3,0.1,0.5,0.4,0.9-0.1c2.4-3.5,4.7-4.3,8.7-3.3c0.2-0.2,0.1-0.4,0.1-0.6
		c-0.6-3,1-5.9,3.9-7c0.6-0.2,0.8-0.5,1-1.1c0.9-2.7,3.5-4.4,6.3-4.2c2.9,0.1,5.1,2.1,5.9,5.4c1.2-1.4,2.7-2.3,4.6-2.2
		c-0.4-1.4-0.7-2.7-0.4-4c1.1-4.9,7-6.8,10.6-3.5c0.5,0.5,0.7,0.5,1.2,0c1.8-2,4.1-2.6,6.6-1.9c2.6,0.7,4.3,2.4,4.9,5
		c0.2,0.7,0.4,0.9,1.1,0.9c2,0.2,3.4,1.4,4.1,3.3c0.2,0.5,0.3,0.8,0.9,0.5c2.2-1.1,4.4-0.9,6.4,0.6s2.7,3.6,2.3,6
		c-0.1,1,1,2.4,1.9,2.4C88.7,20.2,90.6,22.2,91,25.1z"/>
	<path class="st2" d="M49.9,99.1c0.2,11.8,0.4,23.6,0.7,35.5c0,0.8-0.1,1.1-1,1c-4.9-0.3-9.7-1.1-14.3-3.1c-0.8-0.4-1.2-0.8-1.2-1.8
		c-0.6-8.4-1.3-16.8-2-25.2c-0.7-9.2-1.5-18.3-2.2-27.5c-0.5-5.6-0.9-11.3-1.3-16.9c0-0.5-0.1-0.8,0.6-0.7c6.3,1.3,12.8,1.8,19.2,2
		c0.8,0,0.8,0.3,0.9,0.9C49.5,75.3,49.7,87.2,49.9,99.1L49.9,99.1z"/>
	<path class="st2" d="M58.3,99.3c0.2-11.9,0.4-23.8,0.6-35.8c0-0.8,0.2-0.9,1-0.9c6.4-0.2,12.8-0.7,19.1-2c0.8-0.2,0.7,0.2,0.6,0.7
		c-0.3,4.4-0.7,8.9-1,13.3c-0.4,5.3-0.8,10.5-1.3,15.8c-0.5,6.8-1.1,13.7-1.6,20.5c-0.4,5.1-0.8,10.3-1.2,15.4
		c-0.1,1.7-0.3,3.5-0.4,5.2c0,0.6-0.4,0.7-0.8,0.9c-3.2,1.5-6.5,2.4-10,2.9c-1.6,0.2-3.3,0.3-4.9,0.5c-0.7,0.1-0.8-0.2-0.8-0.8
		C57.9,123.1,58.1,111.2,58.3,99.3z"/>
	<path class="st2" d="M27.3,129.7c-3.8-2.2-7.2-4.8-9.8-8.1c-0.5-0.6-0.4-1.5-0.5-2.2c-1.3-9.6-2.6-19.2-3.9-28.7
		c-1.2-9.1-2.5-18.2-3.7-27.3C9,60,8.5,56.7,8.1,53.3C8,53,8,52.7,8,52.3c0.8,0.5,1.5,0.9,2.2,1.3c2.9,1.7,6,3.2,9.1,4.5
		c0.6,0.3,0.9,0.6,1,1.3c0.8,7.8,1.6,15.7,2.4,23.5c0.7,6.6,1.3,13.1,2,19.7s1.3,13.1,2,19.7C26.8,124.7,27,127.1,27.3,129.7z"/>
	<path class="st2" d="M80.9,130c0.3-3,0.6-5.9,0.9-8.8c0.5-5.3,1.1-10.6,1.6-15.9c0.6-6,1.2-12.1,1.8-18.1
		c0.5-5.2,1.1-10.4,1.6-15.7c0.4-4,0.8-8.1,1.2-12.1c0-0.5,0.1-0.8,0.7-1c4-1.7,7.9-3.6,11.6-6c-0.2,1.7-0.4,3.3-0.7,4.9
		c-0.9,6.8-1.8,13.6-2.8,20.5C95.9,84.6,95,91.4,94,98.2c-0.9,6.8-1.8,13.5-2.7,20.3c-0.1,0.9-0.3,1.8-0.4,2.7
		c0,0.3-0.1,0.5-0.3,0.8C88,125.2,84.7,127.7,80.9,130z"/>
</g>
</svg>
